# xmcd
#
# Track frame offsets:
#	150
#	51097
#	67094
#	82202
#	95935
#	107653
#	123530
#	139606
#	155239
#	172272
#	185981
#	207136
#	218475
#	236300
#	251188
#	260803
#	275786
#	288390
#	306263
#	311315
#
# Disc length: 4313 seconds
# Revision: 1
# Processed by: cddbd v1.5.2PL0 Copyright (c) Steve Scherf et al.
# Submitted via: dBpowerAMP V12.0
#
DISCID=4710d714
DTITLE=The New North Carolina Ramblers - Live and Lively
DYEAR=2010
DGENRE=Country
TTITLE0=Opening at the Heritage Hall of Old Time Music
TTITLE1=My Name is John Johanna
TTITLE2=Texas Gals
TTITLE3=The Fate of Dewey Lee
TTITLE4=Alabama Gals
TTITLE5=Dan Carter Waltz
TTITLE6=Don't Let Your Deal Go Down Blues
TTITLE7=Baltimore Fire
TTITLE8=Will You Miss Me When I'm Gone
TTITLE9=Hickman Rag
TTITLE10=After the Ball
TTITLE11=Round Town Gals
TTITLE12=In a Cottage By the Sea
TTITLE13=The Letter That Never Came
TTITLE14=Sandy River Belle
TTITLE15=Under the Double Eagle
TTITLE16=Weary Prodigal Son
TTITLE17=The Wreck of the C&O Sportsman
TTITLE18=Mississippi Sawyer
TTITLE19=Yellow Rose of Texas
EXTD=
EXTT0=
EXTT1=
EXTT2=
EXTT3=
EXTT4=
EXTT5=
EXTT6=
EXTT7=
EXTT8=
EXTT9=
EXTT10=
EXTT11=
EXTT12=
EXTT13=
EXTT14=
EXTT15=
EXTT16=
EXTT17=
EXTT18=
EXTT19=
PLAYORDER=
